<?xml version="1.0" encoding="UTF-8"?>
<svg width="164px" height="164px" viewBox="0 0 164 164" version="1.1" xmlns="http://www.w3.org/2000/svg" xmlns:xlink="http://www.w3.org/1999/xlink">
    <!-- Generator: Sketch 48.2 (47327) - http://www.bohemiancoding.com/sketch -->
    <title>code</title>
    <desc>Created with Sketch.</desc>
    <defs>
        <linearGradient x1="1.68020488%" y1="0%" x2="98.2201987%" y2="98.4763467%" id="linearGradient-1">
            <stop stop-color="#96E6A1" offset="0%"></stop>
            <stop stop-color="#D4FC79" offset="100%"></stop>
        </linearGradient>
    </defs>
    <g id="Page-1" stroke="none" stroke-width="1" fill="none" fill-rule="evenodd">
        <g id="code">
            <path d="M100.729927,126 C99.4664625,134.440049 99.4463035,141.440049 100.66945,147 L117,147 C119.761424,147 122,149.238576 122,152 L122,159 C122,161.761424 119.761424,164 117,164 L56,164 C53.2385763,164 51,161.761424 51,159 L51,152 C51,149.238576 53.2385763,147 56,147 L69.6041885,147 C71.1341167,140.351761 71.8990807,135.518428 71.8990807,132.5 C71.8990807,130.746492 71.6409171,128.579825 71.1245899,126 L18,126 C15.2385763,126 13,123.761424 13,121 L13,17 C13,14.2385763 15.2385763,12 18,12 L159,12 C161.761424,12 164,14.2385763 164,17 L164,121 C164,123.761424 161.761424,126 159,126 L100.729927,126 Z" id="Combined-Shape" fill="url(#linearGradient-1)"></path>
            <path d="M5,5 L5,110 L147,110 L147,5 L5,5 Z M5,0 L147,0 C149.761424,0 152,2.23857625 152,5 L152,110 C152,112.761424 149.761424,115 147,115 L5,115 C2.23857625,115 0,112.761424 0,110 L0,5 C0,2.23857625 2.23857625,0 5,0 Z M44,141 L44,149 L107,149 L107,141 L44,141 Z M65.8462309,136 L85.9044034,136 C82.9773051,128.039213 83.4247686,119.98781 87.24462,112 L91.7553803,114.157091 C88.2418181,121.50441 88.0890142,128.72001 91.2942035,136 L107,136 C109.761424,136 112,138.238576 112,141 L112,149 C112,151.761424 109.761424,154 107,154 L44,154 C41.2385763,154 39,151.761424 39,149 L39,141 C39,138.238576 41.2385763,136 44,136 L60.460684,136 C63.6662998,128.666043 63.5128706,121.454785 60.0031594,114.170255 L64.5076009,112 C68.3332513,119.940273 68.7787349,127.991797 65.8462309,136 Z M96.4169055,37.9348932 C95.3482935,37.0605743 95.1907878,35.4855176 96.0651068,34.4169055 C96.9394257,33.3482935 98.5144824,33.1907878 99.5830945,34.0651068 L121.583094,52.0651068 C122.78467,53.0482141 122.809024,54.8773068 121.63405,55.8920575 L99.6340497,74.8920575 C98.5890952,75.7945182 97.0104032,75.6790042 96.1079425,74.6340497 C95.2054818,73.5890952 95.3209958,72.0104032 96.3659503,71.1079425 L116.115255,54.0517247 L96.4169055,37.9348932 Z M55.5830213,71.0650726 C56.6516333,71.9393915 56.809139,73.5144482 55.9348201,74.5830603 C55.0605012,75.6516723 53.4854444,75.809178 52.4168324,74.9348591 L30.4168324,56.9348591 C29.2152567,55.9517517 29.1909026,54.122659 30.3658772,53.1079083 L52.3658772,34.1079083 C53.4108317,33.2054476 54.9895236,33.3209616 55.8919844,34.3659161 C56.7944451,35.4108706 56.678931,36.9895626 55.6339765,37.8920233 L35.8846717,54.9482411 L55.5830213,71.0650726 Z M84.8415701,33.73858 C85.5382332,32.5465121 87.0693522,32.1449071 88.26142,32.8415701 C89.4534879,33.5382332 89.8550929,35.0693522 89.1584299,36.26142 L66.6584299,74.76142 C65.9617668,75.9534879 64.4306478,76.3550929 63.23858,75.6584299 C62.0465121,74.9617668 61.6449071,73.4306478 62.3415701,72.23858 L84.8415701,33.73858 Z M18,17 L18,92 L134,92 L134,17 L18,17 Z M18,12 L134,12 C136.761424,12 139,14.2385763 139,17 L139,92 C139,94.7614237 136.761424,97 134,97 L18,97 C15.2385763,97 13,94.7614237 13,92 L13,17 C13,14.2385763 15.2385763,12 18,12 Z" id="shape" fill="#404040" fill-rule="nonzero"></path>
        </g>
    </g>
</svg>