<?xml version="1.0" encoding="UTF-8"?>
<svg width="45px" height="36px" viewBox="0 0 45 36" version="1.1" xmlns="http://www.w3.org/2000/svg" xmlns:xlink="http://www.w3.org/1999/xlink">
    <!-- Generator: Sketch 48.2 (47327) - http://www.bohemiancoding.com/sketch -->
    <title>ghost</title>
    <desc>Created with Sketch.</desc>
    <defs></defs>
    <g id="Artboard" stroke="none" stroke-width="1" fill="none" fill-rule="evenodd" transform="translate(-16.000000, -16.000000)">
        <g id="ghost" transform="translate(16.000000, 16.000000)" fill-rule="nonzero">
            <path d="M42.0823429,32.1929546 C40.2173499,32.1929546 38.9115221,31.17378 38.1656913,29.1355973 C37.4195278,27.0974145 36.6336021,23.5351282 35.8079143,18.4455774 C35.0349654,13.5165723 34.1826586,9.88041836 33.2501621,7.53545174 C32.3968572,5.37715079 31.1316233,3.66521702 29.453296,2.40031591 C27.7749687,1.13425021 25.8306179,0.500884628 23.619079,0.500884628 C17.9169586,0.448145755 14.1475433,2.75351663 12.3096685,7.41450171 C11.4828161,9.46715855 10.5904145,13.1299315 9.63179812,18.4058153 C9.0719675,21.6297076 8.49782916,24.8397914 7.91254413,28.0375639 C7.43356868,30.3282944 5.82079065,31.4737428 3.07770377,31.4737428 C2.2508514,31.4737428 1.27859281,31.3795781 0.159929767,31.1945761 C0.0799064292,31.4066962 0.0406434195,31.6336231 0.0406434195,31.873194 C0.0406434195,33.3121167 1.58454482,34.2311373 4.67600773,34.6307549 C5.12836418,34.6831611 5.58155248,34.7106119 6.03440804,34.7106119 C7.63337747,34.7106119 9.31170477,34.3376133 11.0700554,33.5914497 C12.8287388,32.8456189 14.1339011,32.4857635 14.986707,32.5122161 C15.9987277,32.5122161 17.15133,32.9650716 18.4428501,33.8709491 C19.7357011,34.7764939 21.0468527,35.2303477 22.3791332,35.2303477 C23.6854601,35.2556357 25.1110733,34.9104207 26.6556402,34.1910425 C28.1213483,33.5247359 29.387414,33.2315943 30.4518409,33.3121167 C31.2778614,33.3918073 32.3712364,33.8053999 33.7294703,34.5505652 C34.9813947,35.2162063 36.567221,35.5627523 38.4852856,35.5895377 C39.6843047,35.5369652 40.724109,35.3498004 41.6028684,35.0307052 C43.6806469,34.25759 44.799809,32.8988569 44.9593566,30.9546725 C44.1596223,31.7798611 43.2015051,32.1929546 42.0823429,32.1929546 Z M18.1034579,10.9906388 C17.7570783,11.3247071 17.344484,11.4910758 16.8646767,11.4910758 C16.3858676,11.4910758 15.9785971,11.3247071 15.6456934,10.9906388 C15.3124569,10.6584005 15.1467537,10.2517954 15.1467537,9.77198815 C15.1467537,9.2930127 15.3124569,8.88723948 15.6456934,8.55333753 C15.9785971,8.22060016 16.3857013,8.05373237 16.8646767,8.05373237 C17.344484,8.05373237 17.7570783,8.22060016 18.1034579,8.55333753 C18.4490057,8.88723948 18.6235265,9.2930127 18.6235265,9.77198815 C18.6235265,10.2517954 18.4490057,10.6584005 18.1034579,10.9906388 Z M30.2140578,13.2896455 C29.8673455,13.6368569 29.4545848,13.8092149 28.9751102,13.8092149 C28.4954693,13.8092149 28.0886979,13.6368569 27.7554614,13.2896455 C27.4223913,12.9444304 27.256189,12.5308379 27.256189,12.0510306 C27.256189,11.5718888 27.4223913,11.1657828 27.7554614,10.8317145 C28.0886979,10.4994762 28.4954693,10.3329412 28.9751102,10.3329412 C29.4545848,10.3329412 29.8673455,10.4993099 30.2140578,10.8317145 C30.5591065,11.1657828 30.7329618,11.5717224 30.7329618,12.0510306 C30.7331281,12.5310043 30.5592729,12.9444304 30.2140578,13.2896455 Z M23.0203217,21.9632686 C20.7999594,21.9632686 19,20.1633093 19,17.9429469 C19,15.7225846 20.7999594,17.108422 23.0203217,17.108422 C25.240684,17.108422 27.0406434,15.7225846 27.0406434,17.9429469 C27.0406434,20.1633093 25.240684,21.9632686 23.0203217,21.9632686 Z" id="Shape" fill="#FFFFFF"></path>
            <path d="M10.0261665,7.12513094 C9.94225435,7.57266242 10.0776091,7.77628142 10.1861668,7.94019374 C10.2205923,7.99300558 10.2509102,8.03818905 10.2712526,8.0894361 C10.3160448,8.20405736 10.3393212,8.34078136 10.3395168,8.4960873 C10.3465584,11.8758498 10.396045,12.3439192 11.6553141,13.2941412 C12.2581515,13.7491054 13.5761005,14.2025049 14.9345385,14.4235323 C15.9937093,14.596051 17.546182,14.7055866 18.9265271,14.2492532 C20.9376804,13.5836283 22.1717172,10.357607 22.231375,10.1948683 C22.2360694,10.1780468 22.3555806,9.7888039 23.2025261,9.92670149 L23.2035041,9.92689709 L23.255338,9.93491667 C24.059056,10.0657727 24.0494716,10.4732063 24.0477112,10.5176074 C24.0535792,10.6641113 24.2010612,14.1144852 25.8963214,15.3839254 C27.0613116,16.2551253 28.5684051,16.6431945 29.627576,16.8155176 C30.9858184,17.036545 32.3796599,17.023831 33.0955538,16.7844173 C34.5909114,16.2827048 34.7867064,15.8535597 35.8652417,12.6508147 C35.9145327,12.5041151 35.9794717,12.3818655 36.0590807,12.2869997 C36.0942886,12.2447503 36.1373205,12.2114984 36.1870027,12.1723785 C36.3417219,12.0513024 36.5343873,11.9006909 36.5971747,11.4502254 C36.6075415,11.374724 36.6325782,11.2415208 36.6593753,11.0956037 C36.701038,10.8724247 36.7473951,10.621275 36.7612826,10.4841599 C36.8307204,9.81227583 36.2863672,9.44533131 35.9974669,9.34870519 C34.1660695,8.65119765 31.9086565,8.16767587 29.4789205,7.94919131 L29.3517808,7.93745535 C27.8701152,7.80288294 27.0538788,7.72855516 26.0218962,8.00239435 C25.7818957,8.06615977 25.5346581,8.14205234 25.3144131,8.21325053 C24.9226275,8.34078136 24.3673207,8.45774981 24.0764644,8.47359337 C23.9591047,8.48043935 23.8409627,8.48650293 23.7359258,8.49021932 C23.5853142,8.4960873 23.3028686,8.44992584 23.1616459,8.39652719 C23.0636505,8.3591677 22.9531369,8.31633143 22.8439924,8.27271276 C22.5740652,8.16571987 22.0846754,7.87857992 21.7529388,7.63329824 C21.5671193,7.49598744 21.355872,7.34537589 21.1489278,7.20904309 C20.25719,6.62185362 19.4597311,6.43349137 18.0113174,6.09138798 L17.8873074,6.06204806 C15.5123392,5.49891732 13.2154151,5.24131288 11.27057,5.32189984 C10.9570242,5.32209544 10.3244556,5.49735252 10.1771693,6.15671818 C10.1466557,6.29129059 10.1110567,6.54420064 10.0797607,6.76874878 C10.0588316,6.91662195 10.0400541,7.05099875 10.0261665,7.12513094 Z M36.1848511,10.5444045 L36.1050466,11.0369238 L35.5315491,10.6909084 L36.1848511,10.5444045 Z M25.43412,9.51946349 C25.5643892,9.30410852 26.2738283,8.6316377 29.9329067,9.01070939 C30.5740816,9.07721319 31.1156965,9.14684659 31.5896339,9.22391276 C33.7265576,9.57188414 34.3448473,10.0669463 34.6486133,10.7523267 C34.8301295,11.1623031 34.8688582,11.9648475 34.7910096,12.45678 C34.6200557,13.5310121 34.0940889,15.4042678 32.488022,15.8834864 C31.7519814,16.1029489 30.6969181,16.133658 29.6659135,15.9658337 C27.6880121,15.6438771 26.2157353,14.7138018 25.7290839,13.4785914 C24.7059033,10.8829871 25.4104524,9.55604058 25.43412,9.51946349 Z M12.0950216,7.08053427 C12.6010373,6.5265967 13.3437283,6.2533443 15.4808477,6.60112008 C15.9545895,6.67838185 16.4907275,6.78420114 17.1201664,6.92444593 C20.7098071,7.72581677 21.1694657,8.58860583 21.2316663,8.86264062 C21.2351871,8.87613698 21.4824248,10.3591718 19.6901473,12.4955087 C18.8365514,13.5124301 17.1461812,13.9278833 15.1678886,13.6059267 C14.136884,13.4381024 13.1459773,13.0740918 12.5175164,12.6326239 C11.1463644,11.66871 11.2412301,9.72542968 11.4203992,8.65237124 C11.5019642,8.16043869 11.7926249,7.41187969 12.0950216,7.08053427 Z M10.7035273,6.39613188 L11.276438,6.74234286 L10.6233315,6.88865123 L10.7035273,6.39613188 Z" id="Shape" fill="#000000"></path>
        </g>
    </g>
</svg>