<?xml version="1.0" encoding="UTF-8"?>
<svg width="20px" height="20px" viewBox="0 0 20 20" version="1.1" xmlns="http://www.w3.org/2000/svg" xmlns:xlink="http://www.w3.org/1999/xlink">
    <!-- Generator: Sketch 47.1 (45422) - http://www.bohemiancoding.com/sketch -->
    <title>heart</title>
    <desc>Created with Sketch.</desc>
    <defs>
        <linearGradient x1="50%" y1="0%" x2="50%" y2="100%" id="linearGradient-1">
            <stop stop-color="#FF1919" offset="0%"></stop>
            <stop stop-color="#BD041B" offset="100%"></stop>
        </linearGradient>
    </defs>
    <g id="Page-1" stroke="none" stroke-width="1" fill="none" fill-rule="evenodd">
        <path d="M19.9671784,6.49161175 C19.6752369,3.20841804 17.4008622,0.826393009 14.5545282,0.826393009 C12.6582544,0.826393009 10.9219907,1.86904478 9.94500576,3.54011728 C8.97686757,1.84742931 7.3117622,0.826 5.44587489,0.826 C2.59992556,0.826 0.325166228,3.20802503 0.0336093167,6.49121874 C0.0105309332,6.63623891 -0.0840904393,7.39946158 0.203620075,8.64411976 C0.618261699,10.439383 1.57601462,12.0723336 2.97264146,13.3653319 L9.94039008,19.826 L17.0277617,13.3657249 C18.4243885,12.0723336 19.3821414,10.439776 19.796783,8.64411976 C20.0844936,7.39985459 19.9898722,6.63663192 19.9671784,6.49161175 Z" id="heart" fill="url(#linearGradient-1)" fill-rule="nonzero"></path>
    </g>
</svg>