<?xml version="1.0" encoding="UTF-8"?>
<svg width="34px" height="34px" viewBox="0 0 34 34" version="1.1" xmlns="http://www.w3.org/2000/svg" xmlns:xlink="http://www.w3.org/1999/xlink">
    <!-- Generator: Sketch 48.2 (47327) - http://www.bohemiancoding.com/sketch -->
    <title>logo copy</title>
    <desc>Created with Sketch.</desc>
    <defs>
        <linearGradient x1="0%" y1="-6.47424261%" x2="119.714665%" y2="121.846572%" id="linearGradient-1">
            <stop stop-color="#96E6A1" offset="0%"></stop>
            <stop stop-color="#D4FC79" offset="100%"></stop>
        </linearGradient>
    </defs>
    <g id="logo" stroke="none" stroke-width="1" fill="none" fill-rule="evenodd" transform="translate(-192.000000, -528.000000)">
        <g id="logo-copy" transform="translate(194.000000, 530.000000)">
            <circle id="Oval-2" stroke="url(#linearGradient-1)" stroke-width="3" cx="15" cy="15" r="15"></circle>
            <path d="M18.5925811,15.5900552 L21,15.5900552 L21,20.5417127 C19.6534709,22.0472451 17.7289151,22.8 15.2262751,22.8 C13.1180729,22.8 11.3533301,22.0955872 9.93199382,20.6867403 C8.5106575,19.2778935 7.8,17.4961434 7.8,15.3414365 C7.8,13.1867296 8.5242586,11.3911674 9.97279753,9.95469613 C11.4213365,8.51822486 13.1724781,7.8 15.2262751,7.8 C17.2800721,7.8 18.9870102,8.40772873 20.3471406,9.62320442 L19.0618238,11.4878453 C18.5041703,11.0044175 17.9431249,10.6694761 17.3786708,10.483011 C16.8142167,10.296546 16.1579636,10.2033149 15.4098918,10.2033149 C13.9681535,10.2033149 12.7576556,10.6763765 11.7783617,11.6225138 C10.7990677,12.5686511 10.3094281,13.8117326 10.3094281,15.3517956 C10.3094281,16.8918585 10.7854666,18.128034 11.737558,19.0603591 C12.6896493,19.9926842 13.8423425,20.4588398 15.1956723,20.4588398 C16.5490021,20.4588398 17.6812937,20.1618814 18.5925811,19.5679558 L18.5925811,15.5900552 Z" id="G" fill="#FFFFFF"></path>
        </g>
    </g>
</svg>