<?xml version="1.0" encoding="UTF-8"?>
<svg width="296px" height="258px" viewBox="0 0 296 258" version="1.1" xmlns="http://www.w3.org/2000/svg" xmlns:xlink="http://www.w3.org/1999/xlink">
    <!-- Generator: Sketch 53 (72520) - https://sketchapp.com -->
    <title>Group Copy</title>
    <desc>Created with Sketch.</desc>
    <defs>
        <linearGradient x1="13.0278716%" y1="20.6292408%" x2="88.0146748%" y2="79.0670903%" id="linearGradient-1">
            <stop stop-color="#96E6A1" offset="0%"></stop>
            <stop stop-color="#D4FC79" offset="100%"></stop>
        </linearGradient>
    </defs>
    <g id="Page-1" stroke="none" stroke-width="1" fill="none" fill-rule="evenodd">
        <g id="Group-Copy">
            <g id="Oval-2"></g>
            <path d="M192.901982,50.00383 C249.92429,50.4882527 296,96.863347 296,154 C296,211.437614 249.437614,258 192,258 C154.335196,258 121.34685,237.977704 103.098018,207.99617 C46.0757103,207.511747 0,161.136653 0,104 C0,46.562386 46.562386,0 104,0 C141.664804,0 174.65315,20.0222956 192.901982,50.00383 Z" id="Combined-Shape" fill="url(#linearGradient-1)" fill-rule="nonzero"></path>
            <path d="M165.748,147.088 C165.748,151.469355 164.970674,154.719989 163.416,156.84 C161.861326,158.960011 159.388017,161.009323 155.996,162.988 C154.017323,164.118672 151.544015,165.213995 148.576,166.274 C145.607985,167.334005 142.357351,168.252663 138.824,169.03 C135.290649,169.807337 131.580686,170.407998 127.694,170.832 C123.807314,171.256002 119.956019,171.468 116.14,171.468 C105.963949,171.468 96.4240445,170.090014 87.52,167.334 C78.6159555,164.577986 70.8780329,160.408695 64.306,154.826 C57.7339671,149.243305 52.5400191,142.282708 48.724,133.944 C44.9079809,125.605292 43,115.924055 43,104.9 C43,93.3106087 45.0846458,83.2053764 49.254,74.584 C53.4233542,65.9626236 58.9352991,58.7900286 65.79,53.066 C72.6447009,47.3419714 80.4886225,43.0666808 89.322,40.24 C98.1553775,37.4133192 107.235953,36 116.564,36 C129.990734,36 140.625961,38.1553118 148.47,42.466 C156.314039,46.7766882 160.236,52.394632 160.236,59.32 C160.236,62.994685 159.317343,66.1746532 157.48,68.86 C155.642657,71.5453468 153.522679,73.6653256 151.12,75.22 C147.586649,73.0999894 143.170027,71.0153436 137.87,68.966 C132.569974,66.9166564 126.5987,65.892 119.956,65.892 C108.083941,65.892 98.650035,69.2839661 91.654,76.068 C84.657965,82.8520339 81.16,92.2506066 81.16,104.264 C81.16,110.765366 82.1139905,116.38331 84.022,121.118 C85.9300095,125.85269 88.5093171,129.739318 91.76,132.778 C95.0106829,135.816682 98.7559788,138.077993 102.996,139.562 C107.236021,141.046007 111.758643,141.788 116.564,141.788 C119.673349,141.788 122.429321,141.505336 124.832,140.94 C127.234679,140.374664 129.071994,139.73867 130.344,139.032 L130.344,119.104 L107.66,119.104 C106.811996,117.549326 105.999337,115.500013 105.222,112.956 C104.444663,110.411987 104.056,107.726681 104.056,104.9 C104.056,99.8119746 105.221988,96.1373446 107.554,93.876 C109.886012,91.6146554 112.889315,90.484 116.564,90.484 L152.392,90.484 C156.632021,90.484 159.917988,91.6499883 162.25,93.982 C164.582012,96.3140117 165.748,99.5999788 165.748,103.84 L165.748,147.088 Z" id="G" fill="#282732" fill-rule="nonzero"></path>
            <g id="Oval-2" transform="translate(104.000000, 104.000000) rotate(-180.000000) translate(-104.000000, -104.000000) "></g>
            <path d="M253,197.62 C253,202.001355 252.222674,205.251989 250.668,207.372 C249.113326,209.492011 246.640017,211.541323 243.248,213.52 C241.269323,214.650672 238.796015,215.745995 235.828,216.806 C232.859985,217.866005 229.609351,218.784663 226.076,219.562 C222.542649,220.339337 218.832686,220.939998 214.946,221.364 C211.059314,221.788002 207.208019,222 203.392,222 C193.215949,222 183.676045,220.622014 174.772,217.866 C165.867955,215.109986 158.130033,210.940695 151.558,205.358 C144.985967,199.775305 139.792019,192.814708 135.976,184.476 C132.159981,176.137292 130.252,166.456055 130.252,155.432 C130.252,143.842609 132.336646,133.737376 136.506,125.116 C140.675354,116.494624 146.187299,109.322029 153.042,103.598 C159.896701,97.8739714 167.740622,93.5986808 176.574,90.772 C185.407377,87.9453192 194.487953,86.532 203.816,86.532 C217.242734,86.532 227.877961,88.6873118 235.722,92.998 C243.566039,97.3086882 247.488,102.926632 247.488,109.852 C247.488,113.526685 246.569343,116.706653 244.732,119.392 C242.894657,122.077347 240.774679,124.197326 238.372,125.752 C234.838649,123.631989 230.422026,121.547344 225.122,119.498 C219.821973,117.448656 213.8507,116.424 207.208,116.424 C195.335941,116.424 185.902035,119.815966 178.906,126.6 C171.909965,133.384034 168.412,142.782607 168.412,154.796 C168.412,161.297366 169.36599,166.91531 171.274,171.65 C173.18201,176.38469 175.761317,180.271318 179.012,183.31 C182.262683,186.348682 186.007979,188.609993 190.248,190.094 C194.488021,191.578007 199.010643,192.32 203.816,192.32 C206.925349,192.32 209.681321,192.037336 212.084,191.472 C214.486679,190.906664 216.323994,190.27067 217.596,189.564 L217.596,169.636 L194.912,169.636 C194.063996,168.081326 193.251337,166.032013 192.474,163.488 C191.696663,160.943987 191.308,158.258681 191.308,155.432 C191.308,150.343975 192.473988,146.669345 194.806,144.408 C197.138012,142.146655 200.141315,141.016 203.816,141.016 L239.644,141.016 C243.884021,141.016 247.169988,142.181988 249.502,144.514 C251.834012,146.846012 253,150.131979 253,154.372 L253,197.62 Z" id="G" fill="#282732" fill-rule="nonzero" transform="translate(191.626000, 154.266000) rotate(-180.000000) translate(-191.626000, -154.266000) "></path>
        </g>
    </g>
</svg>