<?xml version="1.0" encoding="UTF-8"?>
<svg width="167px" height="166px" viewBox="0 0 167 166" version="1.1" xmlns="http://www.w3.org/2000/svg" xmlns:xlink="http://www.w3.org/1999/xlink">
    <!-- Generator: Sketch 48.2 (47327) - http://www.bohemiancoding.com/sketch -->
    <title>thinking</title>
    <desc>Created with Sketch.</desc>
    <defs>
        <linearGradient x1="1.68020488%" y1="0%" x2="98.2201987%" y2="98.4763467%" id="linearGradient-1">
            <stop stop-color="#96E6A1" offset="0%"></stop>
            <stop stop-color="#D4FC79" offset="100%"></stop>
        </linearGradient>
    </defs>
    <g id="Page-1" stroke="none" stroke-width="1" fill="none" fill-rule="evenodd">
        <g id="thinking">
            <path d="M110.840334,117 L110.88655,117.715169 L98.6169239,147.887883 C98.3733922,148.486761 97.9429139,148.990946 97.3896104,149.325338 L91.3105162,152.999272 C89.8925073,153.856253 88.0482634,153.40145 87.1912821,151.983441 C87.0610438,151.767942 86.9584542,151.536903 86.8859336,151.295774 L84.8104452,144.39486 C84.613974,143.741602 84.6460063,143.04089 84.9012596,142.408281 L95.1533261,117 L46,117 C25.9147524,116.569662 10,100.393376 10,80.5 C10,60.3416066 26.3416066,44 46.5,44 C49.3389158,44 52.1021325,44.3241067 54.7546667,44.9373366 C58.5285649,25.0429775 76.0075446,10 97,10 C120.748244,10 140,29.2517558 140,53 C140,55.3888042 139.805209,57.7321125 139.430645,60.0149076 C154.740011,60.5060566 167,73.0712914 167,88.5 C167,104.240115 154.240115,117 138.5,117 L111,117 L112,117 L110.840334,117 Z" id="Combined-Shape" fill="url(#linearGradient-1)"></path>
            <path d="M5,70.5 C5,53.1030304 19.1030304,39 36.5,39 C38.9253605,39 41.3114015,39.2731791 43.6284395,39.8088469 C46.3947906,40.4483898 49.1378893,38.6587709 49.6670617,35.8692028 C53.0421445,18.0772267 68.6688646,5 87,5 C107.98682,5 125,22.0131795 125,43 C125,45.0962241 124.830749,47.1689808 124.496622,49.2053263 C124.007644,52.1854249 126.251924,54.9155015 129.270319,55.0123365 C141.919487,55.4181421 152,65.8076765 152,78.5 C152,91.4786916 141.478692,102 128.5,102 L101,102 L101,107 L128.5,107 C144.240115,107 157,94.2401154 157,78.5 C157,64.7823923 147.308574,53.3283384 134.399158,50.6112748 C134.3916,50.6586775 132.735429,50.4598884 129.430645,50.0149076 L129.590971,45.0174787 C129.984178,44.3579381 130,43.6808168 130,43 C130,19.2517558 110.748244,0 87,0 C67.1878975,0 50.5052709,13.3988789 45.5194324,31.6293326 L44.7546667,34.9373366 L41.9212124,34.3998391 C40.1523868,34.1364657 38.34213,34 36.5,34 C16.3416066,34 0,50.3416066 0,70.5 C0,90.3933756 15.9147524,106.569662 36,107 L85,107 L85,102 L36.0554397,102 C18.7201976,101.601522 5,87.6630341 5,70.5 Z" id="Combined-Shape" fill="#404040" fill-rule="nonzero"></path>
            <path d="M95.3875092,76.0793996 L97.2605421,71.4434803 L113.957842,78.1896274 L112.084809,82.8255467 L95.3875092,76.0793996 Z M75.3897751,135.716598 L77.1269068,143.505951 L83.9247898,139.145559 L111.475726,70.9545983 L102.947453,67.5089522 L75.3897751,135.716598 Z M103.42971,62.3111231 L114.739535,66.8805889 C116.531778,67.6047022 117.397669,69.6446122 116.673555,71.4368555 L88.3817993,141.461409 C88.1102122,142.133611 87.6365826,142.704886 87.0263396,143.096316 L78.0197604,148.873442 C76.3927127,149.917085 74.2276897,149.444143 73.1840462,147.817095 C72.9624431,147.471614 72.8033354,147.089847 72.7139954,146.689244 L70.4080531,136.349327 C70.2536514,135.656985 70.3132637,134.934069 70.5789909,134.276371 L98.8734435,64.2451435 C99.5975568,62.4529002 101.637467,61.5870098 103.42971,62.3111231 Z" id="pencil" fill="#404040" fill-rule="nonzero"></path>
            <circle id="Oval-2-Copy-2" fill="url(#linearGradient-1)" cx="47.5" cy="133.5" r="12.5"></circle>
            <circle id="Oval-2-Copy-3" fill="url(#linearGradient-1)" cx="35" cy="157" r="9"></circle>
            <circle id="Oval-2" stroke="#404040" stroke-width="5" cx="37.5" cy="127.5" r="10"></circle>
            <circle id="Oval-2-Copy" stroke="#404040" stroke-width="5" cx="25" cy="149" r="6.5"></circle>
        </g>
    </g>
</svg>