<?xml version="1.0" encoding="UTF-8"?>
<svg width="140px" height="164px" viewBox="0 0 140 164" version="1.1" xmlns="http://www.w3.org/2000/svg" xmlns:xlink="http://www.w3.org/1999/xlink">
    <!-- Generator: Sketch 48.2 (47327) - http://www.bohemiancoding.com/sketch -->
    <title>wireframe</title>
    <desc>Created with Sketch.</desc>
    <defs>
        <linearGradient x1="1.68020488%" y1="0%" x2="98.2201987%" y2="98.4763467%" id="linearGradient-1">
            <stop stop-color="#96E6A1" offset="0%"></stop>
            <stop stop-color="#D4FC79" offset="100%"></stop>
        </linearGradient>
    </defs>
    <g id="Page-1" stroke="none" stroke-width="1" fill="none" fill-rule="evenodd">
        <g id="wireframe">
            <rect id="bg" fill="url(#linearGradient-1)" x="12" y="11" width="128" height="153" rx="5"></rect>
            <path d="M5,5 L5,148 L123,148 L123,5 L5,5 Z M5,0 L123,0 C125.761424,0 128,2.23857625 128,5 L128,148 C128,150.761424 125.761424,153 123,153 L5,153 C2.23857625,153 7.10542736e-15,150.761424 7.10542736e-15,148 L7.10542736e-15,5 C7.10542736e-15,2.23857625 2.23857625,0 5,0 Z M17,107 L17,133 L54,133 L54,107 L17,107 Z M17,102 L54,102 C56.7614237,102 59,104.238576 59,107 L59,133 C59,135.761424 56.7614237,138 54,138 L17,138 C14.2385763,138 12,135.761424 12,133 L12,107 C12,104.238576 14.2385763,102 17,102 Z M1.98780488,46 L1.98780488,41 L125.54948,41 L125.54948,46 L1.98780488,46 Z M1.98780488,93 L1.98780488,88 L125.54948,88 L125.54948,93 L1.98780488,93 Z M68.0756685,112 C66.6949567,112 65.5756685,110.880712 65.5756685,109.5 C65.5756685,108.119288 66.6949567,107 68.0756685,107 L111.5,107 C112.880712,107 114,108.119288 114,109.5 C114,110.880712 112.880712,112 111.5,112 L68.0756685,112 Z M33.0756685,29 C31.6949567,29 30.5756685,27.8807119 30.5756685,26.5 C30.5756685,25.1192881 31.6949567,24 33.0756685,24 L94.5325518,24 C95.9132636,24 97.0325518,25.1192881 97.0325518,26.5 C97.0325518,27.8807119 95.9132636,29 94.5325518,29 L33.0756685,29 Z M68.0756685,122 C66.6949567,122 65.5756685,120.880712 65.5756685,119.5 C65.5756685,118.119288 66.6949567,117 68.0756685,117 L111.5,117 C112.880712,117 114,118.119288 114,119.5 C114,120.880712 112.880712,122 111.5,122 L68.0756685,122 Z M68.0756685,132 C66.6949567,132 65.5756685,130.880712 65.5756685,129.5 C65.5756685,128.119288 66.6949567,127 68.0756685,127 L111.5,127 C112.880712,127 114,128.119288 114,129.5 C114,130.880712 112.880712,132 111.5,132 L68.0756685,132 Z M35.0245032,81.4998799 C32.756065,81.5221146 31.6330886,78.7546149 33.2756231,77.1898828 L51.8400373,59.5048143 C52.8056179,58.5849706 54.3232104,58.5849706 55.2887911,59.5048143 L60.0802945,64.0693573 L69.4012786,55.1898828 C70.5399838,54.1051149 72.3855361,54.3286573 73.2323268,55.6539182 L87.2323268,77.5644708 C88.2956261,79.2285763 87.1004599,81.4105527 85.1256555,81.4105527 L44.1379074,81.4105527 L35.0245032,81.4998799 Z M59,57 C57.3431458,57 56,55.6568542 56,54 C56,52.3431458 57.3431458,51 59,51 C60.6568542,51 62,52.3431458 62,54 C62,55.6568542 60.6568542,57 59,57 Z M44.1011524,76.4106728 L80.561486,76.4105527 L70.6528813,60.9031952 L61.8046714,69.3322896 C60.8390908,70.2521333 59.3214983,70.2521333 58.3559176,69.3322896 L53.5644142,64.7677466 L41.3138943,76.4379928 L44.1011524,76.4106728 Z" id="shape" fill="#404040" fill-rule="nonzero"></path>
        </g>
    </g>
</svg>